<svg xmlns="http://www.w3.org/2000/svg" xml:space="preserve" fill-rule="evenodd" stroke-linejoin="round"
    stroke-miterlimit="2" clip-rule="evenodd" viewBox="0 0 4209 1167">
    <path fill="none" d="M0 0h4208.33v1166.67H0z" />
    <clipPath id="a">
        <path d="M0 0h4208.33v1166.67H0z" />
    </clipPath>
    <g clip-path="url(#a)">
        <path fill="url(#b)"
            d="M1062.5 0c57.53 0 104.167 46.637 104.167 104.167V1062.5c0 57.53-46.637 104.167-104.167 104.167H104.167C46.637 1166.667 0 1120.03 0 1062.5V104.167C0 46.637 46.637 0 104.167 0z" />
        <g fill="#fff">
            <path
                d="M860.417 521.309c0-54.307 43.876-98.392 97.916-98.392 54.045 0 97.917 44.085 97.917 98.392 0 32.831-16.038 61.934-40.668 79.812V981.25H860.417z" />
            <path
                d="M222.991 393.831V283.335c0-54.044 43.619-97.918 97.339-97.918h526.16c53.72 0 97.334 43.874 97.334 97.918v110.442c-64.05 6.909-114.001 61.519-114.001 127.776v55.53H336.502v-55.53c0-66.085-49.693-120.586-113.511-127.722" />
            <path
                d="M306.25 521.309c0-54.307-43.872-98.392-97.917-98.392-54.04 0-97.916 44.085-97.916 98.392 0 32.831 16.041 61.934 40.668 79.812V981.25H306.25zm31.324 264.108h491.667V981.25H337.574zm0-177.084h491.667v145.833H337.574z" />
        </g>
        <g fill-rule="nonzero">
            <path fill="#fff"
                d="M1457.48 1013.93q-8.313 6.045-21.157 8.438-12.846 2.392-27.202 2.392-16.875 0-32.113-5.415t-26.824-16.623-18.387-28.461-6.8-40.929q0-24.683 7.556-42.062t19.646-28.335 27.201-15.993 29.973-5.038q16.623 0 27.202 1.763 10.578 1.764 17.882 4.534l-5.541 21.661q-12.342-5.793-37.528-5.793a67.8 67.8 0 0 0-22.039 3.652q-10.704 3.651-19.142 11.838-8.437 8.185-13.475 21.408-5.037 13.224-5.037 32.365 0 17.127 4.785 30.099 4.786 12.97 13.224 21.66 8.437 8.69 19.897 13.097 11.46 4.408 25.061 4.408 12.342 0 21.409-2.267t15.364-5.793zm188.65-106.035 2.77-28.21h-1.007l-10.831 24.432-49.114 78.079h-7.556l-51.633-78.331-10.326-23.928h-1.26l4.03 27.706v113.844h-23.675V845.18h18.89l59.692 89.916 9.319 19.142h.504l8.816-19.645 56.67-89.413h19.897v176.307h-25.186zm164.22 67.248q0-10.326-6.801-16.371-6.8-6.045-17.127-10.453t-22.164-8.311-22.165-9.949q-10.326-6.045-17.127-15.616t-6.8-24.935q0-21.408 15.742-34.506 15.741-13.097 44.958-13.097 16.875 0 30.98 2.519 14.104 2.519 22.164 6.549l-7.808 21.156q-6.296-3.273-18.89-5.918-12.593-2.646-27.705-2.645-17.127 0-25.691 7.304t-8.563 16.875q0 9.823 6.8 15.868 6.801 6.045 17.127 10.704 10.327 4.66 22.165 8.942 11.837 4.281 22.164 10.578 10.326 6.297 17.127 15.49t6.8 23.55q0 11.837-4.533 21.408t-13.097 16.372-20.654 10.452-27.453 3.652q-20.653 0-34.884-3.148-14.23-3.149-21.535-6.674l8.312-21.913q6.297 3.274 19.016 6.675 12.72 3.4 28.083 3.4 8.815 0 16.372-1.637 7.556-1.638 13.223-5.038t8.815-8.689 3.149-12.594m238.27-129.963h23.675v115.103q0 16.372-4.659 28.209-4.66 11.838-13.223 19.772t-20.276 11.712-26.068 3.778q-34.002 0-51.885-14.734t-17.882-43.699V845.18h25.186v110.57q0 25.69 11.208 35.765 11.21 10.075 33.121 10.075 21.157 0 30.98-11.083 9.822-11.082 9.823-35.513zm112.83 64.226-15.113-24.683h-1.007l3.022 24.683v112.081h-23.675V842.661h14.104l89.917 114.348 14.357 23.424h1.259l-3.022-23.424V845.18h23.675v178.826h-14.104zm280.58 104.524q-8.311 6.045-21.156 8.438-12.846 2.392-27.202 2.392-16.876 0-32.113-5.415-15.238-5.415-26.824-16.623t-18.387-28.461-6.8-40.929q0-24.683 7.556-42.062t19.646-28.335 27.201-15.993q15.112-5.038 29.973-5.038 16.623 0 27.201 1.763 10.58 1.764 17.883 4.534l-5.541 21.661q-12.342-5.793-37.528-5.793a67.8 67.8 0 0 0-22.039 3.652q-10.704 3.651-19.142 11.838-8.437 8.185-13.475 21.408-5.037 13.224-5.037 32.365 0 17.127 4.785 30.099 4.786 12.97 13.223 21.66 8.439 8.69 19.898 13.097 11.46 4.408 25.061 4.408 12.342 0 21.409-2.267t15.364-5.793zm25.69-80.597q0-21.66 5.415-38.661 5.416-17.001 15.616-28.713t24.935-17.883 33.372-6.171q19.898 0 34.884 6.675t24.935 18.638 14.86 28.839 4.912 37.276q0 21.661-5.415 38.662-5.416 17.001-15.742 28.713t-25.061 17.883q-14.734 6.17-33.373 6.17-20.149 0-35.009-6.674t-24.683-18.638-14.735-28.839q-4.911-16.875-4.911-37.277m26.698 0q0 14.357 3.148 26.95t9.571 22.165q6.423 9.57 16.372 15.112t23.549 5.541q24.432 0 38.662-16.875t14.231-52.893q0-14.104-3.149-26.698-3.148-12.592-9.571-22.164-6.422-9.571-16.371-15.238t-23.802-5.667q-24.179 0-38.409 17.127t-14.231 52.64m325.422-25.438 2.771-28.21h-1.007l-10.831 24.432-49.114 78.079h-7.556l-51.633-78.331-10.327-23.928h-1.259l4.03 27.706v113.844h-23.676V845.18h18.89l59.693 89.916 9.319 19.142h.504l8.815-19.645 56.671-89.413h19.897v176.307h-25.187zm77.57-60.952q10.578-2.267 23.046-3.149a349 349 0 0 1 24.557-.881q12.845 0 26.068 2.267t24.054 8.311 17.756 16.749q6.927 10.705 6.927 27.58 0 15.868-6.297 27.076t-16.749 18.26q-10.453 7.053-23.928 10.327t-27.831 3.274q-1.512 0-4.66-.126t-6.548-.252a153 153 0 0 1-6.549-.378q-3.148-.25-4.659-.503v65.989h-25.187zm48.358 17.63q-6.8 0-13.223.252-6.422.252-9.948 1.26v67.752q1.259.504 4.155.63t6.045.378q3.149.25 6.045.251h4.408q9.067 0 17.882-1.385t15.994-5.415q7.178-4.03 11.586-11.334 4.407-7.305 4.408-18.89 0-10.076-4.282-16.623-4.282-6.549-11.082-10.327-6.8-3.779-15.238-5.163a103 103 0 0 0-16.75-1.386m229.202 156.917h-115.355V845.183h25.187v154.143h90.168zm49.87-159.687h-20.149V845.18h65.485v16.623h-20.149v143.061h20.149v16.623h-65.485v-16.623h20.149zm217.36 152.127q-8.311 6.045-21.157 8.438-12.845 2.392-27.201 2.392-16.876 0-32.114-5.415t-26.824-16.623q-11.585-11.208-18.386-28.461t-6.8-40.929q0-24.683 7.556-42.062t19.645-28.335q12.09-10.956 27.202-15.993t29.972-5.038q16.624 0 27.202 1.763 10.578 1.764 17.883 4.534l-5.541 21.661q-12.342-5.793-37.529-5.793a67.8 67.8 0 0 0-22.038 3.652q-10.704 3.651-19.142 11.838-8.438 8.185-13.475 21.408t-5.037 32.365q0 17.127 4.785 30.099 4.786 12.97 13.223 21.66t19.898 13.097q11.46 4.408 25.061 4.408 12.341 0 21.408-2.267t15.364-5.793zm125.68-38.535h-69.767l-18.638 46.092h-24.683l72.538-178.826h13.097l72.79 178.826h-26.195zm-62.211-21.157h54.907l-20.401-50.121-6.801-26.95h-.503l-6.801 27.453zm249.101-86.894h-59.44v154.143h-25.187V867.344h-59.441V845.18h144.068zm34.76-22.164h106.54v21.66h-81.353v53.648h74.301v21.661h-74.301v57.677h82.613v21.661h-107.8zm154.9 0q5.037-.756 11.712-1.134t13.853-.63q7.178-.25 14.104-.377 6.927-.126 12.72-.126 23.17 0 40.172 6.674t28.21 18.513q11.208 11.837 16.749 28.209 5.541 16.371 5.541 35.765 0 17.631-5.163 34.128t-16.498 29.343q-11.334 12.845-29.09 20.653-17.757 7.808-42.944 7.808-4.281 0-11.46-.252-7.178-.252-14.734-.504a558 558 0 0 1-13.979-.629q-6.423-.378-9.193-.882zm53.144 19.897h-7.556q-4.03 0-8.06.252t-7.304.504-5.037.503v134.498q1.258.252 4.911.378t7.682.252q4.03.126 7.556.251 3.526.126 5.038.126 18.89 0 31.609-5.918 12.72-5.92 20.401-15.742 7.683-9.823 10.831-22.291t3.148-25.816q0-11.334-3.022-23.172-3.023-11.838-10.327-21.535-7.304-9.696-19.394-15.993t-30.476-6.297" />
            <path fill="url(#c)"
                d="M1470.75 740.807q-49.42 0-78.318-4.188-28.899-4.188-43.975-16.334-15.078-12.145-19.266-34.342t-4.188-58.215V254.147q0-35.18 4.188-56.958 4.188-21.779 19.266-34.343 15.076-12.565 43.975-16.753 28.898-4.188 78.318-4.188h330.862v128.157q-20.103-16.752-38.531-23.872t-40.206-7.12h-196.004q-27.642 0-43.976 3.35-16.333 3.35-25.128 12.146-8.796 8.795-11.308 23.872-2.514 15.078-2.513 37.693v264.69q0 17.59 2.931 28.898 2.933 11.308 10.89 18.428t22.615 10.051q14.66 2.932 37.275 2.932h215.269q27.642 0 46.07-6.701t34.343-23.454v129.832z" />
            <path fill="url(#d)"
                d="M2268.17 301.054q0-20.94-2.094-34.343-2.094-13.401-10.47-20.94t-25.129-10.471q-16.753-2.931-45.232-2.931h-146.584q-24.291 0-40.206 2.931t-24.71 10.471q-8.796 7.539-12.146 20.94-3.35 13.403-3.35 34.343v280.605q0 34.342 16.752 51.513 16.753 17.172 63.66 17.172h146.584q46.907 0 64.916-15.915t18.009-52.77zm118.105 326.674q0 35.18-3.769 57.377t-18.428 34.762q-14.658 12.564-43.556 16.752-28.899 4.188-79.156 4.188h-257.151q-51.933 0-80.831-4.607-28.898-4.606-43.556-16.752-14.66-12.146-18.009-34.343-3.351-22.197-3.351-57.377V253.309q0-34.343 3.351-56.12 3.35-21.779 18.009-33.924 14.658-12.146 43.556-16.753 28.899-4.607 80.831-4.607h257.151q50.257 0 79.156 4.188 28.898 4.188 43.556 16.334 14.658 12.145 18.428 33.924t3.769 56.958z" />
            <path fill="url(#e)"
                d="M2997.74 141.905q-20.941 31.83-20.941 87.951v397.872q0 37.693-5.026 59.89t-20.522 33.924q-15.495 11.727-43.975 15.496t-75.386 3.769h-255.476q-51.095 0-79.993-4.607-28.898-4.606-43.557-16.752-14.658-12.146-18.009-34.343-3.35-22.197-3.35-57.377V229.856q0-37.694-20.103-87.951h165.012q-21.778 51.096-21.778 87.951v342.589q0 19.265 3.35 32.248t12.146 21.36q8.795 8.376 24.71 11.726t41.881 3.351h143.234q25.966 0 41.881-3.351t24.71-10.889 11.727-20.94 2.932-33.505V229.856q0-42.719-20.103-87.951z" />
            <path fill="url(#f)"
                d="M3168.61 740.807q-49.419 0-78.318-4.188-28.898-4.188-43.975-16.334-15.077-12.145-19.266-34.342t-4.188-58.215V254.147q0-35.18 4.188-56.958 4.189-21.779 19.266-34.343t43.975-16.753q28.899-4.188 78.318-4.188h330.862v128.157q-20.103-16.752-38.531-23.872t-40.206-7.12h-196.004q-27.642 0-43.975 3.35t-25.129 12.146-11.308 23.872q-2.513 15.078-2.513 37.693v264.69q0 17.59 2.932 28.898t10.889 18.428 22.616 10.051 37.274 2.932h215.27q27.642 0 46.069-6.701t34.343-23.454v129.832z" />
            <path fill="url(#g)"
                d="M3926.66 740.807q20.103-25.967 20.103-87.95V486.169h-269.715v166.688q0 48.582 20.94 87.95h-161.661q20.94-36.855 20.94-87.95V240.745q0-56.12-20.94-98.84h161.661q-20.94 49.42-20.94 98.84v154.961h269.715V235.719q0-22.616-4.188-45.65-4.188-23.035-15.915-48.164h160.824q-20.94 42.72-20.941 98.84v412.112q0 38.53 20.941 87.95z" />
        </g>
    </g>
    <defs>
        <linearGradient id="b" x1="0" x2="1" y1="0" y2="0"
            gradientTransform="scale(1166.67 1163.77)rotate(-90 .964 .036)" gradientUnits="userSpaceOnUse">
            <stop offset="0" stop-color="#85181b" />
            <stop offset="1" stop-color="#ec9b6a" />
        </linearGradient>
        <linearGradient id="c" x1="0" x2="1" y1="0" y2="0"
            gradientTransform="rotate(-90 1839.899 -1099.092)scale(598.902)" gradientUnits="userSpaceOnUse">
            <stop offset="0" stop-color="#cecece" />
            <stop offset="1" stop-color="#fefefe" />
        </linearGradient>
        <linearGradient id="d" x1="0" x2="1" y1="0" y2="0"
            gradientTransform="rotate(-90 1845.344 -1104.537)scale(598.902)" gradientUnits="userSpaceOnUse">
            <stop offset="0" stop-color="#cecece" />
            <stop offset="1" stop-color="#fefefe" />
        </linearGradient>
        <linearGradient id="e" x1="0" x2="1" y1="0" y2="0"
            gradientTransform="rotate(-90 1838.643 -1097.837)scale(598.902)" gradientUnits="userSpaceOnUse">
            <stop offset="0" stop-color="#cecece" />
            <stop offset="1" stop-color="#fefefe" />
        </linearGradient>
        <linearGradient id="f" x1="0" x2="1" y1="0" y2="0"
            gradientTransform="rotate(-90 1832.364 -1091.557)scale(598.902)" gradientUnits="userSpaceOnUse">
            <stop offset="0" stop-color="#cecece" />
            <stop offset="1" stop-color="#fefefe" />
        </linearGradient>
        <linearGradient id="g" x1="0" x2="1" y1="0" y2="0"
            gradientTransform="rotate(-90 1839.899 -1099.092)scale(598.902)" gradientUnits="userSpaceOnUse">
            <stop offset="0" stop-color="#cecece" />
            <stop offset="1" stop-color="#fefefe" />
        </linearGradient>
    </defs>
</svg>