<?xml version="1.0" encoding="UTF-8" standalone="no"?>
<svg
   xml:space="preserve"
   fill-rule="evenodd"
   stroke-linejoin="round"
   stroke-miterlimit="2"
   clip-rule="evenodd"
   version="1.1"
   viewBox="0 0 4208.33 1166.67"
   fill="#000000"
   data-color-origin="#000000"
   data-color-type="fill"
   id="svg27"
   width="4208.3301"
   height="1166.67"
   xmlns:inkscape="http://www.inkscape.org/namespaces/inkscape"
   xmlns:sodipodi="http://sodipodi.sourceforge.net/DTD/sodipodi-0.dtd"
   xmlns="http://www.w3.org/2000/svg"
   xmlns:svg="http://www.w3.org/2000/svg"><sodipodi:namedview
   id="namedview1"
   pagecolor="#ffffff"
   bordercolor="#000000"
   borderopacity="0.25"
   inkscape:showpageshadow="2"
   inkscape:pageopacity="0.0"
   inkscape:pagecheckerboard="0"
   inkscape:deskcolor="#d1d1d1" />
    <rect
   width="4208.3301"
   height="1166.67"
   x="0"
   y="0"
   fill="none"
   id="rect1" />
    <clipPath
   id="f3858a1c-cbd6-4b76-8b7b-5adeb5be365ea">
        <rect
   width="4208.3301"
   height="1166.67"
   x="0"
   y="0"
   id="rect2" />
    </clipPath>
    <g
   clip-path="url(#f3858a1c-cbd6-4b76-8b7b-5adeb5be365ea)"
   id="g26">
        <path
   fill="url(#f3858a1c-cbd6-4b76-8b7b-5adeb5be365eb)"
   d="m 1062.5,0 c 57.53,0 104.167,46.637 104.167,104.167 0,221.457 0,736.876 0,958.333 0,57.53 -46.637,104.167 -104.167,104.167 H 104.167 C 46.637,1166.667 0,1120.03 0,1062.5 V 104.167 C 0,46.637 46.637,0 104.167,0 Z"
   id="path2"
   style="fill:url(#f3858a1c-cbd6-4b76-8b7b-5adeb5be365eb)" />
        <path
   fill="#ffffff"
   d="m 860.417,521.309 c 0,-54.307 43.876,-98.392 97.916,-98.392 54.045,0 97.917,44.085 97.917,98.392 0,32.831 -16.038,61.934 -40.668,79.812 V 981.25 H 860.417 Z"
   class=" bl-fill-0"
   data-color-origin="#ffffff"
   data-color-type="fill"
   id="path3" />
        <path
   fill="#ffffff"
   d="M 222.991,393.831 V 283.335 c 0,-54.044 43.619,-97.918 97.339,-97.918 h 526.16 c 53.72,0 97.334,43.874 97.334,97.918 v 110.442 c -64.05,6.909 -114.001,61.519 -114.001,127.776 v 55.53 H 336.502 v -55.53 c 0,-66.085 -49.693,-120.586 -113.511,-127.722 z"
   class=" bl-fill-0"
   data-color-origin="#ffffff"
   data-color-type="fill"
   id="path4" />
        <path
   fill="#ffffff"
   d="m 306.25,521.309 c 0,-54.307 -43.872,-98.392 -97.917,-98.392 -54.04,0 -97.916,44.085 -97.916,98.392 0,32.831 16.041,61.934 40.668,79.812 V 981.25 H 306.25 Z"
   class=" bl-fill-0"
   data-color-origin="#ffffff"
   data-color-type="fill"
   id="path5" />
        <rect
   width="491.66699"
   height="195.83299"
   x="337.57401"
   y="785.41699"
   fill="#ffffff"
   class=" bl-fill-0"
   data-color-origin="#ffffff"
   data-color-type="fill"
   id="rect5" />
        <rect
   width="491.66699"
   height="145.83299"
   x="337.57401"
   y="608.33301"
   fill="#ffffff"
   class=" bl-fill-0"
   data-color-origin="#ffffff"
   data-color-type="fill"
   id="rect6" />
        <path
   fill="#ffffff"
   fill-rule="nonzero"
   d="m 1457.48,1013.93 c -5.542,4.03 -12.594,6.843 -21.157,8.438 -8.564,1.595 -17.631,2.392 -27.202,2.392 -11.25,0 -21.955,-1.805 -32.113,-5.415 -10.159,-3.61 -19.1,-9.151 -26.824,-16.623 -7.724,-7.472 -13.853,-16.959 -18.387,-28.461 -4.533,-11.502 -6.8,-25.145 -6.8,-40.929 0,-16.455 2.519,-30.476 7.556,-42.062 5.037,-11.586 11.586,-21.031 19.646,-28.335 8.06,-7.304 17.127,-12.635 27.201,-15.993 10.075,-3.359 20.066,-5.038 29.973,-5.038 11.082,0 20.149,0.588 27.202,1.763 7.052,1.176 13.013,2.687 17.882,4.534 l -5.541,21.661 c -8.228,-3.862 -20.737,-5.793 -37.528,-5.793 -7.556,0 -14.902,1.217 -22.039,3.652 -7.136,2.434 -13.517,6.38 -19.142,11.838 -5.625,5.457 -10.116,12.593 -13.475,21.408 -3.358,8.816 -5.037,19.604 -5.037,32.365 0,11.418 1.595,21.451 4.785,30.099 3.191,8.647 7.599,15.867 13.224,21.66 5.625,5.793 12.257,10.159 19.897,13.097 7.64,2.939 15.994,4.408 25.061,4.408 8.228,0 15.364,-0.756 21.409,-2.267 6.045,-1.511 11.166,-3.442 15.364,-5.793 z"
   class=" bl-fill-0"
   data-color-origin="#ffffff"
   data-color-type="fill"
   id="path6" />
        <path
   fill="#ffffff"
   fill-rule="nonzero"
   d="m 1646.13,907.895 2.77,-28.21 h -1.007 l -10.831,24.432 -49.114,78.079 h -7.556 l -51.633,-78.331 -10.326,-23.928 h -1.26 l 4.03,27.706 v 113.844 h -23.675 V 845.18 h 18.89 l 59.692,89.916 9.319,19.142 h 0.504 l 8.816,-19.645 56.67,-89.413 h 19.897 v 176.307 h -25.186 z"
   class=" bl-fill-0"
   data-color-origin="#ffffff"
   data-color-type="fill"
   id="path7" />
        <path
   fill="#ffffff"
   fill-rule="nonzero"
   d="m 1810.35,975.143 c 0,-6.884 -2.267,-12.341 -6.801,-16.371 -4.533,-4.03 -10.242,-7.514 -17.127,-10.453 -6.884,-2.938 -14.272,-5.709 -22.164,-8.311 -7.892,-2.603 -15.28,-5.919 -22.165,-9.949 -6.884,-4.03 -12.593,-9.235 -17.127,-15.616 -4.533,-6.38 -6.8,-14.692 -6.8,-24.935 0,-14.272 5.247,-25.774 15.742,-34.506 10.494,-8.731 25.48,-13.097 44.958,-13.097 11.25,0 21.577,0.84 30.98,2.519 9.403,1.679 16.791,3.862 22.164,6.549 l -7.808,21.156 c -4.197,-2.182 -10.494,-4.155 -18.89,-5.918 -8.395,-1.764 -17.631,-2.645 -27.705,-2.645 -11.418,0 -19.982,2.435 -25.691,7.304 -5.709,4.87 -8.563,10.495 -8.563,16.875 0,6.549 2.267,11.838 6.8,15.868 4.534,4.03 10.243,7.598 17.127,10.704 6.885,3.107 14.273,6.087 22.165,8.942 7.891,2.854 15.28,6.38 22.164,10.578 6.884,4.198 12.593,9.361 17.127,15.49 4.534,6.129 6.8,13.979 6.8,23.55 0,7.891 -1.511,15.028 -4.533,21.408 -3.023,6.381 -7.388,11.838 -13.097,16.372 -5.709,4.533 -12.594,8.018 -20.654,10.452 -8.059,2.435 -17.211,3.652 -27.453,3.652 -13.769,0 -25.397,-1.049 -34.884,-3.148 -9.487,-2.099 -16.665,-4.324 -21.535,-6.674 l 8.312,-21.913 c 4.198,2.183 10.537,4.408 19.016,6.675 8.48,2.266 17.841,3.4 28.083,3.4 5.877,0 11.334,-0.546 16.372,-1.637 5.037,-1.092 9.445,-2.771 13.223,-5.038 3.778,-2.267 6.716,-5.163 8.815,-8.689 2.099,-3.526 3.149,-7.724 3.149,-12.594 z"
   class=" bl-fill-0"
   data-color-origin="#ffffff"
   data-color-type="fill"
   id="path8" />
        <path
   fill="#ffffff"
   fill-rule="nonzero"
   d="m 2048.62,845.18 h 23.675 v 115.103 c 0,10.914 -1.553,20.318 -4.659,28.209 -3.107,7.892 -7.514,14.483 -13.223,19.772 -5.709,5.289 -12.468,9.193 -20.276,11.712 -7.808,2.519 -16.497,3.778 -26.068,3.778 -22.668,0 -39.963,-4.911 -51.885,-14.734 -11.922,-9.823 -17.882,-24.39 -17.882,-43.699 V 845.18 h 25.186 v 110.57 c 0,17.127 3.736,29.048 11.208,35.765 7.473,6.716 18.513,10.075 33.121,10.075 14.105,0 24.431,-3.695 30.98,-11.083 6.548,-7.388 9.823,-19.226 9.823,-35.513 z"
   class=" bl-fill-0"
   data-color-origin="#ffffff"
   data-color-type="fill"
   id="path9" />
        <path
   fill="#ffffff"
   fill-rule="nonzero"
   d="m 2161.45,909.406 -15.113,-24.683 h -1.007 l 3.022,24.683 v 112.081 h -23.675 V 842.661 h 14.104 l 89.917,114.348 14.357,23.424 h 1.259 l -3.022,-23.424 V 845.18 h 23.675 v 178.826 h -14.104 z"
   class=" bl-fill-0"
   data-color-origin="#ffffff"
   data-color-type="fill"
   id="path10" />
        <path
   fill="#ffffff"
   fill-rule="nonzero"
   d="m 2442.03,1013.93 c -5.541,4.03 -12.593,6.843 -21.156,8.438 -8.564,1.595 -17.631,2.392 -27.202,2.392 -11.25,0 -21.955,-1.805 -32.113,-5.415 -10.159,-3.61 -19.1,-9.151 -26.824,-16.623 -7.724,-7.472 -13.853,-16.959 -18.387,-28.461 -4.533,-11.502 -6.8,-25.145 -6.8,-40.929 0,-16.455 2.519,-30.476 7.556,-42.062 5.037,-11.586 11.586,-21.031 19.646,-28.335 8.059,-7.304 17.127,-12.635 27.201,-15.993 10.075,-3.359 20.066,-5.038 29.973,-5.038 11.082,0 20.149,0.588 27.201,1.763 7.053,1.176 13.014,2.687 17.883,4.534 l -5.541,21.661 c -8.228,-3.862 -20.737,-5.793 -37.528,-5.793 -7.556,0 -14.903,1.217 -22.039,3.652 -7.136,2.434 -13.517,6.38 -19.142,11.838 -5.625,5.457 -10.116,12.593 -13.475,21.408 -3.358,8.816 -5.037,19.604 -5.037,32.365 0,11.418 1.595,21.451 4.785,30.099 3.191,8.647 7.598,15.867 13.223,21.66 5.626,5.793 12.258,10.159 19.898,13.097 7.64,2.939 15.994,4.408 25.061,4.408 8.228,0 15.364,-0.756 21.409,-2.267 6.045,-1.511 11.166,-3.442 15.364,-5.793 z"
   class=" bl-fill-0"
   data-color-origin="#ffffff"
   data-color-type="fill"
   id="path11" />
        <path
   fill="#ffffff"
   fill-rule="nonzero"
   d="m 2467.72,933.333 c 0,-14.44 1.805,-27.327 5.415,-38.661 3.61,-11.334 8.816,-20.905 15.616,-28.713 6.8,-7.808 15.112,-13.769 24.935,-17.883 9.823,-4.114 20.947,-6.171 33.372,-6.171 13.265,0 24.893,2.225 34.884,6.675 9.991,4.449 18.303,10.662 24.935,18.638 6.633,7.976 11.586,17.589 14.86,28.839 3.275,11.25 4.912,23.675 4.912,37.276 0,14.441 -1.805,27.328 -5.415,38.662 -3.611,11.334 -8.858,20.905 -15.742,28.713 -6.885,7.808 -15.238,13.769 -25.061,17.883 -9.823,4.113 -20.947,6.17 -33.373,6.17 -13.433,0 -25.102,-2.224 -35.009,-6.674 -9.907,-4.45 -18.135,-10.663 -24.683,-18.638 -6.549,-7.976 -11.46,-17.589 -14.735,-28.839 -3.274,-11.25 -4.911,-23.676 -4.911,-37.277 z m 26.698,0 c 0,9.571 1.049,18.555 3.148,26.95 2.099,8.396 5.29,15.784 9.571,22.165 4.282,6.38 9.739,11.418 16.372,15.112 6.632,3.694 14.482,5.541 23.549,5.541 16.288,0 29.175,-5.625 38.662,-16.875 9.487,-11.25 14.231,-28.881 14.231,-52.893 0,-9.403 -1.05,-18.302 -3.149,-26.698 -2.099,-8.395 -5.289,-15.783 -9.571,-22.164 -4.281,-6.381 -9.739,-11.46 -16.371,-15.238 -6.633,-3.778 -14.566,-5.667 -23.802,-5.667 -16.119,0 -28.922,5.709 -38.409,17.127 -9.487,11.418 -14.231,28.965 -14.231,52.64 z"
   class=" bl-fill-0"
   data-color-origin="#ffffff"
   data-color-type="fill"
   id="path12" />
        <path
   fill="#ffffff"
   fill-rule="nonzero"
   d="m 2819.84,907.895 2.771,-28.21 h -1.007 l -10.831,24.432 -49.114,78.079 h -7.556 l -51.633,-78.331 -10.327,-23.928 h -1.259 l 4.03,27.706 v 113.844 h -23.676 V 845.18 h 18.89 l 59.693,89.916 9.319,19.142 h 0.504 l 8.815,-19.645 56.671,-89.413 h 19.897 v 176.307 h -25.187 z"
   class=" bl-fill-0"
   data-color-origin="#ffffff"
   data-color-type="fill"
   id="path13" />
        <path
   fill="#ffffff"
   fill-rule="nonzero"
   d="m 2897.41,846.943 c 7.052,-1.512 14.734,-2.561 23.046,-3.149 8.311,-0.587 16.497,-0.881 24.557,-0.881 8.563,0 17.253,0.755 26.068,2.267 8.816,1.511 16.833,4.281 24.054,8.311 7.22,4.03 13.139,9.613 17.756,16.749 4.618,7.137 6.927,16.33 6.927,27.58 0,10.578 -2.099,19.604 -6.297,27.076 -4.198,7.472 -9.781,13.559 -16.749,18.26 -6.969,4.702 -14.944,8.144 -23.928,10.327 -8.983,2.183 -18.26,3.274 -27.831,3.274 -1.008,0 -2.561,-0.042 -4.66,-0.126 -2.099,-0.084 -4.281,-0.168 -6.548,-0.252 -2.267,-0.084 -4.45,-0.21 -6.549,-0.378 -2.099,-0.167 -3.652,-0.335 -4.659,-0.503 v 65.989 h -25.187 z m 48.358,17.63 c -4.533,0 -8.941,0.084 -13.223,0.252 -4.281,0.168 -7.598,0.588 -9.948,1.26 v 67.752 c 0.839,0.336 2.224,0.546 4.155,0.63 1.931,0.084 3.946,0.21 6.045,0.378 2.099,0.167 4.114,0.251 6.045,0.251 h 4.408 c 6.045,0 12.005,-0.461 17.882,-1.385 5.877,-0.923 11.209,-2.728 15.994,-5.415 4.786,-2.687 8.647,-6.465 11.586,-11.334 2.938,-4.87 4.408,-11.166 4.408,-18.89 0,-6.717 -1.428,-12.258 -4.282,-16.623 -2.855,-4.366 -6.549,-7.808 -11.082,-10.327 -4.534,-2.519 -9.613,-4.24 -15.238,-5.163 -5.625,-0.924 -11.208,-1.386 -16.75,-1.386 z"
   class=" bl-fill-0"
   data-color-origin="#ffffff"
   data-color-type="fill"
   id="path14" />
        <path
   fill="#ffffff"
   fill-rule="nonzero"
   d="M 3174.97,1021.49 H 3059.615 V 845.183 h 25.187 v 154.143 h 90.168 z"
   class=" bl-fill-0"
   data-color-origin="#ffffff"
   data-color-type="fill"
   id="path15" />
        <path
   fill="#ffffff"
   fill-rule="nonzero"
   d="m 3224.84,861.803 h -20.149 V 845.18 h 65.485 v 16.623 h -20.149 v 143.061 h 20.149 v 16.623 h -65.485 v -16.623 h 20.149 z"
   class=" bl-fill-0"
   data-color-origin="#ffffff"
   data-color-type="fill"
   id="path16" />
        <path
   fill="#ffffff"
   fill-rule="nonzero"
   d="m 3442.2,1013.93 c -5.541,4.03 -12.593,6.843 -21.157,8.438 -8.563,1.595 -17.63,2.392 -27.201,2.392 -11.251,0 -21.955,-1.805 -32.114,-5.415 -10.158,-3.61 -19.1,-9.151 -26.824,-16.623 -7.723,-7.472 -13.852,-16.959 -18.386,-28.461 -4.534,-11.502 -6.8,-25.145 -6.8,-40.929 0,-16.455 2.518,-30.476 7.556,-42.062 5.037,-11.586 11.586,-21.031 19.645,-28.335 8.06,-7.304 17.127,-12.635 27.202,-15.993 10.075,-3.359 20.066,-5.038 29.972,-5.038 11.083,0 20.15,0.588 27.202,1.763 7.052,1.176 13.013,2.687 17.883,4.534 l -5.541,21.661 c -8.228,-3.862 -20.737,-5.793 -37.529,-5.793 -7.556,0 -14.902,1.217 -22.038,3.652 -7.136,2.434 -13.517,6.38 -19.142,11.838 -5.625,5.457 -10.117,12.593 -13.475,21.408 -3.358,8.816 -5.037,19.604 -5.037,32.365 0,11.418 1.595,21.451 4.785,30.099 3.191,8.647 7.598,15.867 13.223,21.66 5.625,5.793 12.258,10.159 19.898,13.097 7.64,2.939 15.993,4.408 25.061,4.408 8.227,0 15.364,-0.756 21.408,-2.267 6.045,-1.511 11.167,-3.442 15.364,-5.793 z"
   class=" bl-fill-0"
   data-color-origin="#ffffff"
   data-color-type="fill"
   id="path17" />
        <path
   fill="#ffffff"
   fill-rule="nonzero"
   d="m 3567.88,975.395 h -69.767 l -18.638,46.092 h -24.683 l 72.538,-178.826 h 13.097 l 72.79,178.826 h -26.195 z m -62.211,-21.157 h 54.907 l -20.401,-50.121 -6.801,-26.95 h -0.503 l -6.801,27.453 z"
   class=" bl-fill-0"
   data-color-origin="#ffffff"
   data-color-type="fill"
   id="path18" />
        <path
   fill="#ffffff"
   fill-rule="nonzero"
   d="m 3754.77,867.344 h -59.44 v 154.143 h -25.187 V 867.344 h -59.441 V 845.18 h 144.068 z"
   class=" bl-fill-0"
   data-color-origin="#ffffff"
   data-color-type="fill"
   id="path19" />
        <path
   fill="#ffffff"
   fill-rule="nonzero"
   d="m 3789.53,845.18 h 106.54 v 21.66 h -81.353 v 53.648 h 74.301 v 21.661 h -74.301 v 57.677 h 82.613 v 21.661 h -107.8 z"
   class=" bl-fill-0"
   data-color-origin="#ffffff"
   data-color-type="fill"
   id="path20" />
        <path
   fill="#ffffff"
   fill-rule="nonzero"
   d="m 3944.43,845.18 c 3.358,-0.504 7.262,-0.882 11.712,-1.134 4.45,-0.252 9.067,-0.462 13.853,-0.63 4.785,-0.167 9.487,-0.293 14.104,-0.377 4.618,-0.084 8.858,-0.126 12.72,-0.126 15.447,0 28.838,2.225 40.172,6.674 11.335,4.45 20.738,10.621 28.21,18.513 7.472,7.891 13.055,17.294 16.749,28.209 3.694,10.914 5.541,22.836 5.541,35.765 0,11.754 -1.721,23.13 -5.163,34.128 -3.442,10.998 -8.942,20.779 -16.498,29.343 -7.556,8.563 -17.253,15.448 -29.09,20.653 -11.838,5.205 -26.153,7.808 -42.944,7.808 -2.854,0 -6.674,-0.084 -11.46,-0.252 -4.785,-0.168 -9.697,-0.336 -14.734,-0.504 -5.038,-0.168 -9.697,-0.378 -13.979,-0.629 -4.282,-0.252 -7.346,-0.546 -9.193,-0.882 z m 53.144,19.897 h -7.556 c -2.687,0 -5.373,0.084 -8.06,0.252 -2.686,0.168 -5.121,0.336 -7.304,0.504 -2.183,0.168 -3.862,0.336 -5.037,0.503 v 134.498 c 0.839,0.168 2.476,0.294 4.911,0.378 2.435,0.084 4.996,0.168 7.682,0.252 2.687,0.084 5.205,0.168 7.556,0.251 2.351,0.084 4.03,0.126 5.038,0.126 12.593,0 23.129,-1.973 31.609,-5.918 8.48,-3.946 15.28,-9.194 20.401,-15.742 5.122,-6.549 8.732,-13.979 10.831,-22.291 2.099,-8.311 3.148,-16.917 3.148,-25.816 0,-7.556 -1.007,-15.28 -3.022,-23.172 -2.015,-7.892 -5.458,-15.07 -10.327,-21.535 -4.869,-6.464 -11.334,-11.795 -19.394,-15.993 -8.06,-4.198 -18.218,-6.297 -30.476,-6.297 z"
   class=" bl-fill-0"
   data-color-origin="#ffffff"
   data-color-type="fill"
   id="path21" />
        <path
   fill="#ffffff"
   fill-rule="nonzero"
   d="m 1470.75,740.807 c -32.947,0 -59.053,-1.396 -78.318,-4.188 -19.266,-2.792 -33.924,-8.236 -43.975,-16.334 -10.052,-8.097 -16.474,-19.544 -19.266,-34.342 -2.792,-14.798 -4.188,-34.203 -4.188,-58.215 V 254.147 c 0,-23.453 1.396,-42.44 4.188,-56.958 2.792,-14.519 9.214,-25.967 19.266,-34.343 10.051,-8.376 24.709,-13.961 43.975,-16.753 19.265,-2.792 45.371,-4.188 78.318,-4.188 h 330.862 v 128.157 c -13.402,-11.168 -26.246,-19.126 -38.531,-23.872 -12.285,-4.747 -25.687,-7.12 -40.206,-7.12 h -196.004 c -18.428,0 -33.087,1.117 -43.976,3.35 -10.889,2.234 -19.265,6.282 -25.128,12.146 -5.864,5.863 -9.633,13.821 -11.308,23.872 -1.676,10.052 -2.513,22.616 -2.513,37.693 v 264.69 c 0,11.727 0.977,21.359 2.931,28.898 1.955,7.539 5.585,13.681 10.89,18.428 5.305,4.746 12.843,8.097 22.615,10.051 9.773,1.955 22.198,2.932 37.275,2.932 h 215.269 c 18.428,0 33.785,-2.234 46.07,-6.701 12.285,-4.467 23.733,-12.285 34.343,-23.454 v 129.832 z"
   class=" bl-fill-0"
   data-color-origin="#ffffff"
   data-color-type="fill"
   id="path22" />
        <path
   fill="#ffffff"
   fill-rule="nonzero"
   d="m 2268.17,301.054 c 0,-13.96 -0.698,-25.408 -2.094,-34.343 -1.396,-8.934 -4.886,-15.914 -10.47,-20.94 -5.585,-5.026 -13.961,-8.516 -25.129,-10.471 -11.168,-1.954 -26.246,-2.931 -45.232,-2.931 h -146.584 c -16.194,0 -29.596,0.977 -40.206,2.931 -10.61,1.955 -18.847,5.445 -24.71,10.471 -5.864,5.026 -9.912,12.006 -12.146,20.94 -2.233,8.935 -3.35,20.383 -3.35,34.343 v 280.605 c 0,22.895 5.584,40.066 16.752,51.513 11.169,11.448 32.388,17.172 63.66,17.172 h 146.584 c 31.271,0 52.91,-5.305 64.916,-15.915 12.006,-10.61 18.009,-28.2 18.009,-52.77 z m 118.105,326.674 c 0,23.453 -1.256,42.579 -3.769,57.377 -2.513,14.798 -8.656,26.385 -18.428,34.762 -9.772,8.376 -24.291,13.96 -43.556,16.752 -19.266,2.792 -45.651,4.188 -79.156,4.188 h -257.151 c -34.622,0 -61.565,-1.535 -80.831,-4.607 -19.265,-3.071 -33.784,-8.655 -43.556,-16.752 -9.773,-8.097 -15.776,-19.545 -18.009,-34.343 -2.234,-14.798 -3.351,-33.924 -3.351,-57.377 V 253.309 c 0,-22.895 1.117,-41.602 3.351,-56.12 2.233,-14.519 8.236,-25.827 18.009,-33.924 9.772,-8.097 24.291,-13.682 43.556,-16.753 19.266,-3.071 46.209,-4.607 80.831,-4.607 h 257.151 c 33.505,0 59.89,1.396 79.156,4.188 19.265,2.792 33.784,8.237 43.556,16.334 9.772,8.097 15.915,19.405 18.428,33.924 2.513,14.519 3.769,33.505 3.769,56.958 z"
   class=" bl-fill-0"
   data-color-origin="#ffffff"
   data-color-type="fill"
   id="path23" />
        <path
   fill="#ffffff"
   fill-rule="nonzero"
   d="m 2997.74,141.905 c -13.961,21.22 -20.941,50.537 -20.941,87.951 v 397.872 c 0,25.129 -1.675,45.092 -5.026,59.89 -3.35,14.798 -10.191,26.106 -20.522,33.924 -10.33,7.818 -24.989,12.983 -43.975,15.496 -18.986,2.513 -44.115,3.769 -75.386,3.769 h -255.476 c -34.063,0 -60.728,-1.535 -79.993,-4.607 -19.266,-3.071 -33.784,-8.655 -43.557,-16.752 -9.772,-8.097 -15.775,-19.545 -18.009,-34.343 -2.233,-14.798 -3.35,-33.924 -3.35,-57.377 V 229.856 c 0,-25.129 -6.701,-54.446 -20.103,-87.951 h 165.012 c -14.519,34.064 -21.778,63.381 -21.778,87.951 v 342.589 c 0,12.843 1.117,23.593 3.35,32.248 2.234,8.656 6.283,15.775 12.146,21.36 5.863,5.584 14.1,9.493 24.71,11.726 10.61,2.234 24.57,3.351 41.881,3.351 h 143.234 c 17.311,0 31.271,-1.117 41.881,-3.351 10.61,-2.233 18.847,-5.863 24.71,-10.889 5.864,-5.025 9.773,-12.006 11.727,-20.94 1.954,-8.935 2.932,-20.103 2.932,-33.505 V 229.856 c 0,-28.479 -6.701,-57.796 -20.103,-87.951 z"
   class=" bl-fill-0"
   data-color-origin="#ffffff"
   data-color-type="fill"
   id="path24" />
        <path
   fill="#ffffff"
   fill-rule="nonzero"
   d="m 3168.61,740.807 c -32.946,0 -59.052,-1.396 -78.318,-4.188 -19.265,-2.792 -33.924,-8.236 -43.975,-16.334 -10.052,-8.097 -16.473,-19.544 -19.266,-34.342 -2.792,-14.798 -4.188,-34.203 -4.188,-58.215 V 254.147 c 0,-23.453 1.396,-42.44 4.188,-56.958 2.793,-14.519 9.214,-25.967 19.266,-34.343 10.051,-8.376 24.71,-13.961 43.975,-16.753 19.266,-2.792 45.372,-4.188 78.318,-4.188 h 330.862 v 128.157 c -13.402,-11.168 -26.246,-19.126 -38.531,-23.872 -12.285,-4.747 -25.687,-7.12 -40.206,-7.12 h -196.004 c -18.428,0 -33.086,1.117 -43.975,3.35 -10.889,2.234 -19.266,6.282 -25.129,12.146 -5.863,5.863 -9.633,13.821 -11.308,23.872 -1.675,10.052 -2.513,22.616 -2.513,37.693 v 264.69 c 0,11.727 0.977,21.359 2.932,28.898 1.954,7.539 5.584,13.681 10.889,18.428 5.305,4.746 12.844,8.097 22.616,10.051 9.772,1.955 22.197,2.932 37.274,2.932 h 215.27 c 18.428,0 33.784,-2.234 46.069,-6.701 12.285,-4.467 23.733,-12.285 34.343,-23.454 v 129.832 z"
   class=" bl-fill-0"
   data-color-origin="#ffffff"
   data-color-type="fill"
   id="path25" />
        <path
   fill="#ffffff"
   fill-rule="nonzero"
   d="m 3926.66,740.807 c 13.402,-17.311 20.103,-46.628 20.103,-87.95 V 486.169 h -269.715 v 166.688 c 0,32.388 6.98,61.705 20.94,87.95 h -161.661 c 13.96,-24.57 20.94,-53.887 20.94,-87.95 V 240.745 c 0,-37.414 -6.98,-70.36 -20.94,-98.84 h 161.661 c -13.96,32.947 -20.94,65.893 -20.94,98.84 v 154.961 h 269.715 V 235.719 c 0,-15.077 -1.396,-30.294 -4.188,-45.65 -2.792,-15.357 -8.097,-31.411 -15.915,-48.164 h 160.824 c -13.96,28.48 -20.941,61.426 -20.941,98.84 v 412.112 c 0,25.687 6.981,55.004 20.941,87.95 z"
   class=" bl-fill-0"
   data-color-origin="#ffffff"
   data-color-type="fill"
   id="path26" />
    </g>
    <defs
   id="defs27">
        <linearGradient
   id="f3858a1c-cbd6-4b76-8b7b-5adeb5be365eb"
   x1="0"
   x2="1"
   y1="0"
   y2="0"
   gradientTransform="matrix(0,-1163.77,1166.67,0,1082.6698,1163.77)"
   gradientUnits="userSpaceOnUse">
            <stop
   offset="0"
   stop-color="#85181b"
   stop-opacity="1"
   class=" bl-stopColor-1"
   data-color-origin="#85181b"
   data-color-type="stopColor"
   id="stop26" />
            <stop
   offset="1"
   stop-color="#ec9b6a"
   stop-opacity="1"
   class=" bl-stopColor-2"
   data-color-origin="#ec9b6a"
   data-color-type="stopColor"
   id="stop27" />
        </linearGradient>
    </defs>
</svg>
