<svg xmlns="http://www.w3.org/2000/svg" xml:space="preserve" fill-rule="evenodd" stroke-linejoin="round"
    stroke-miterlimit="2" clip-rule="evenodd" viewBox="0 0 1167 1167">
    <path fill="none" d="M0 0h1166.67v1166.67H0z" />
    <clipPath id="a">
        <path d="M0 0h1166.67v1166.67H0z" />
    </clipPath>
    <g clip-path="url(#a)">
        <path fill="url(#b)"
            d="M1062.5 0c57.53 0 104.167 46.637 104.167 104.167V1062.5c0 57.53-46.637 104.167-104.167 104.167H104.167C46.637 1166.667 0 1120.03 0 1062.5V104.167C0 46.637 46.637 0 104.167 0z" />
        <g fill="#fff">
            <path
                d="M860.417 521.309c0-54.307 43.876-98.392 97.916-98.392 54.045 0 97.917 44.085 97.917 98.392 0 32.831-16.038 61.934-40.668 79.812V981.25H860.417z" />
            <path
                d="M222.991 393.831V283.335c0-54.044 43.619-97.918 97.339-97.918h526.16c53.72 0 97.334 43.874 97.334 97.918v110.442c-64.05 6.909-114.001 61.519-114.001 127.776v55.53H336.502v-55.53c0-66.085-49.693-120.586-113.511-127.722" />
            <path
                d="M306.25 521.309c0-54.307-43.872-98.392-97.917-98.392-54.04 0-97.916 44.085-97.916 98.392 0 32.831 16.041 61.934 40.668 79.812V981.25H306.25zm31.324 264.108h491.667V981.25H337.574zm0-177.084h491.667v145.833H337.574z" />
        </g>
    </g>
    <defs>
        <linearGradient id="b" x1="0" x2="1" y1="0" y2="0"
            gradientTransform="scale(1166.67 1163.77)rotate(-90 .964 .036)" gradientUnits="userSpaceOnUse">
            <stop offset="0" stop-color="#85181b" />
            <stop offset="1" stop-color="#ec9b6a" />
        </linearGradient>
    </defs>
</svg>